<?xml version="1.0" encoding="UTF-8" standalone="no"?>
<svg
   xmlns:dc="http://purl.org/dc/elements/1.1/"
   xmlns:cc="http://creativecommons.org/ns#"
   xmlns:rdf="http://www.w3.org/1999/02/22-rdf-syntax-ns#"
   xmlns:svg="http://www.w3.org/2000/svg"
   xmlns="http://www.w3.org/2000/svg"
   xmlns:sodipodi="http://sodipodi.sourceforge.net/DTD/sodipodi-0.dtd"
   xmlns:inkscape="http://www.inkscape.org/namespaces/inkscape"
   width="7in"
   height="7in"
   viewBox="0 0 177.8 177.8"
   version="1.1"
   id="svg8"
   sodipodi:docname="reset_icon.svg"
   inkscape:version="1.0.1 (3bc2e813f5, 2020-09-07)">
  <defs
     id="defs2">
    <inkscape:path-effect
       effect="powerstroke"
       id="path-effect149"
       is_visible="true"
       lpeversion="1"
       offset_points="0,0.1322915"
       sort_points="true"
       interpolator_type="CubicBezierJohan"
       interpolator_beta="0.2"
       start_linecap_type="zerowidth"
       linejoin_type="extrp_arc"
       miter_limit="4"
       scale_width="1"
       end_linecap_type="zerowidth" />
    <inkscape:path-effect
       effect="powerstroke"
       id="path-effect130"
       is_visible="true"
       lpeversion="1"
       offset_points="0,0.1322915"
       sort_points="true"
       interpolator_type="CubicBezierJohan"
       interpolator_beta="0.2"
       start_linecap_type="zerowidth"
       linejoin_type="extrp_arc"
       miter_limit="4"
       scale_width="1"
       end_linecap_type="zerowidth" />
    <inkscape:path-effect
       effect="powerstroke"
       id="path-effect111"
       is_visible="true"
       lpeversion="1"
       offset_points="0,0.1322915"
       sort_points="true"
       interpolator_type="CubicBezierJohan"
       interpolator_beta="0.2"
       start_linecap_type="zerowidth"
       linejoin_type="extrp_arc"
       miter_limit="4"
       scale_width="1"
       end_linecap_type="zerowidth" />
    <inkscape:path-effect
       effect="powerstroke"
       id="path-effect107"
       is_visible="true"
       lpeversion="1"
       offset_points="0,0.1322915"
       sort_points="true"
       interpolator_type="CubicBezierJohan"
       interpolator_beta="0.2"
       start_linecap_type="zerowidth"
       linejoin_type="extrp_arc"
       miter_limit="4"
       scale_width="1"
       end_linecap_type="zerowidth" />
    <inkscape:path-effect
       effect="powerstroke"
       id="path-effect103"
       is_visible="true"
       lpeversion="1"
       offset_points="0,0.1322915"
       sort_points="true"
       interpolator_type="CubicBezierJohan"
       interpolator_beta="0.2"
       start_linecap_type="zerowidth"
       linejoin_type="extrp_arc"
       miter_limit="4"
       scale_width="1"
       end_linecap_type="zerowidth" />
    <inkscape:path-effect
       effect="powerstroke"
       id="path-effect99"
       is_visible="true"
       lpeversion="1"
       offset_points="0,0.1322915"
       sort_points="true"
       interpolator_type="CubicBezierJohan"
       interpolator_beta="0.2"
       start_linecap_type="zerowidth"
       linejoin_type="extrp_arc"
       miter_limit="4"
       scale_width="1"
       end_linecap_type="zerowidth" />
    <inkscape:path-effect
       effect="powerstroke"
       id="path-effect95"
       is_visible="true"
       lpeversion="1"
       offset_points="0,0.1322915"
       sort_points="true"
       interpolator_type="CubicBezierJohan"
       interpolator_beta="0.2"
       start_linecap_type="zerowidth"
       linejoin_type="extrp_arc"
       miter_limit="4"
       scale_width="1"
       end_linecap_type="zerowidth" />
    <inkscape:path-effect
       effect="bspline"
       id="path-effect93"
       is_visible="true"
       lpeversion="1"
       weight="33.333333"
       steps="2"
       helper_size="0"
       apply_no_weight="true"
       apply_with_weight="true"
       only_selected="false" />
    <inkscape:path-effect
       effect="powerstroke"
       id="path-effect89"
       is_visible="true"
       lpeversion="1"
       offset_points="0,0.1322915"
       sort_points="true"
       interpolator_type="CubicBezierJohan"
       interpolator_beta="0.2"
       start_linecap_type="zerowidth"
       linejoin_type="extrp_arc"
       miter_limit="4"
       scale_width="1"
       end_linecap_type="zerowidth" />
    <inkscape:path-effect
       effect="bspline"
       id="path-effect87"
       is_visible="true"
       lpeversion="1"
       weight="33.333333"
       steps="2"
       helper_size="0"
       apply_no_weight="true"
       apply_with_weight="true"
       only_selected="false" />
    <inkscape:path-effect
       effect="powerstroke"
       id="path-effect83"
       is_visible="true"
       lpeversion="1"
       offset_points="3,0.1322915"
       sort_points="true"
       interpolator_type="CubicBezierJohan"
       interpolator_beta="0.2"
       start_linecap_type="zerowidth"
       linejoin_type="extrp_arc"
       miter_limit="4"
       scale_width="1"
       end_linecap_type="zerowidth" />
    <inkscape:path-effect
       effect="bspline"
       id="path-effect81"
       is_visible="true"
       lpeversion="1"
       weight="33.333333"
       steps="2"
       helper_size="0"
       apply_no_weight="true"
       apply_with_weight="true"
       only_selected="false" />
  </defs>
  <sodipodi:namedview
     id="base"
     pagecolor="#ffffff"
     bordercolor="#666666"
     borderopacity="1.0"
     inkscape:pageopacity="0.0"
     inkscape:pageshadow="2"
     inkscape:zoom="0.98994949"
     inkscape:cx="327.41785"
     inkscape:cy="337.73505"
     inkscape:document-units="mm"
     inkscape:current-layer="layer1"
     inkscape:document-rotation="0"
     showgrid="false"
     inkscape:window-width="1843"
     inkscape:window-height="1057"
     inkscape:window-x="69"
     inkscape:window-y="-8"
     inkscape:window-maximized="1"
     units="in"
     height="8in" />
  <metadata
     id="metadata5">
    <rdf:RDF>
      <cc:Work
         rdf:about="">
        <dc:format>image/svg+xml</dc:format>
        <dc:type
           rdf:resource="http://purl.org/dc/dcmitype/StillImage" />
        <dc:title></dc:title>
      </cc:Work>
    </rdf:RDF>
  </metadata>
  <g
     inkscape:label="Layer 1"
     inkscape:groupmode="layer"
     id="layer1">
    <path
       style="fill:#000000;fill-rule:nonzero;stroke:none;stroke-width:0.264583px;stroke-linecap:butt;stroke-linejoin:miter;stroke-opacity:1"
       d="m 35.879751,26.841813 c 12.27831,-7.016177 24.887044,-11.274331 37.661863,-12.561608 10.784137,-1.086682 20.884659,0.02811 30.023496,2.551653 8.15858,2.252859 14.89946,5.450481 19.8675,8.355562 4.48473,2.622457 7.18178,4.852011 7.17697,4.847957 l 0.16504,0.0043 c 2.9609,-2.240682 6.24102,-4.722928 9.67686,-7.323022 0,8.190585 0,16.994393 0,25.799857 -7.90729,0.351435 -15.94101,0.708488 -23.66356,1.051713 0.48507,-0.710739 2.07242,-3.037477 3.5594,-5.227392 0.94229,-1.387738 1.84077,-2.715109 2.49354,-3.688098 0.3365,-0.501569 0.60488,-0.904774 0.78234,-1.176392 0.0451,-0.06896 0.0843,-0.12951 0.11734,-0.181103 0.0332,-0.05186 0.0604,-0.09504 0.0811,-0.128819 0.0104,-0.01697 0.0194,-0.03195 0.0267,-0.04471 0.004,-0.0064 0.007,-0.01248 0.0102,-0.01813 0.003,-0.0056 0.006,-0.01127 0.009,-0.01685 0.001,-0.0028 0.003,-0.006 0.004,-0.0093 0.001,-0.0032 0.003,-0.0075 0.005,-0.01236 0.002,-0.0043 0.004,-0.0125 0.006,-0.02296 9.7e-4,-0.0053 0.002,-0.01372 0.002,-0.024 3e-5,-0.0053 -2.6e-4,-0.01193 -0.001,-0.0195 -0.001,-0.0075 -0.003,-0.01695 -0.007,-0.02738 -0.004,-0.01051 -0.01,-0.02268 -0.0191,-0.03483 -0.009,-0.01238 -0.0216,-0.0237 -0.0363,-0.03268 -0.0146,-0.0089 -0.0297,-0.01428 -0.0439,-0.01703 -0.0139,-0.0027 -0.0263,-0.0028 -0.0363,-0.002 -0.0191,0.0016 -0.0337,0.007 -0.0417,0.01036 -0.009,0.0037 -0.0153,0.0076 -0.0196,0.01033 -0.008,0.0053 -0.0147,0.01059 -0.0181,0.0135 -0.004,0.0033 -0.007,0.0064 -0.01,0.0089 0.007,-0.0069 0.0152,-0.0135 0.0248,-0.01915 0.01,-0.0057 0.0199,-0.01 0.0304,-0.01282 0.0212,-0.0058 0.0399,-0.0049 0.0533,-0.0025 0.0131,0.0023 0.0229,0.0063 0.0285,0.009 0.006,0.0028 0.01,0.0053 0.0115,0.0066 0.003,0.0023 0.004,0.003 4e-4,-1.21e-4 -0.003,-0.0028 -0.007,-0.0073 -0.0134,-0.01412 -0.0123,-0.01371 -0.0282,-0.03296 -0.0486,-0.05868 -0.0203,-0.02558 -0.0439,-0.05616 -0.0712,-0.09188 -0.055,-0.07192 -0.12351,-0.162293 -0.20742,-0.269855 -0.0845,-0.108375 -0.18386,-0.233058 -0.29987,-0.372691 -0.23554,-0.283508 -0.53605,-0.624016 -0.91545,-1.009945 -0.38639,-0.393029 -0.85013,-0.828616 -1.4042,-1.295206 -2.39042,-2.012981 -6.20537,-4.386398 -12.15242,-6.454936 -6.6594,-2.316309 -15.3839,-4.039687 -26.578458,-4.734413 -13.26039,-0.82293 -28.804958,-0.131688 -46.311841,1.988523 z m -0.04973,0.01647 c 17.4962,-2.118917 33.023904,-2.80876 46.263642,-1.987112 11.177097,0.693642 19.876777,2.413751 26.507927,4.720236 5.92084,2.059421 9.70644,4.417975 12.06891,6.407421 0.54762,0.461157 1.00528,0.891095 1.38594,1.278303 0.37375,0.38018 0.66933,0.715149 0.90063,0.993541 0.11395,0.137154 0.21155,0.259669 0.29476,0.366345 0.0829,0.106292 0.15003,0.194893 0.20595,0.267945 0.0275,0.03589 0.0522,0.06798 0.074,0.09544 0.0215,0.02713 0.0413,0.0513 0.059,0.07099 0.009,0.0099 0.018,0.01953 0.0272,0.02833 0.009,0.0084 0.0198,0.01822 0.0326,0.027 0.007,0.0045 0.0148,0.0096 0.0246,0.01432 0.01,0.0046 0.023,0.0099 0.0395,0.0128 0.0168,0.003 0.0386,0.0038 0.0624,-0.0027 0.0119,-0.0032 0.0234,-0.0081 0.0342,-0.01443 0.0108,-0.0064 0.0202,-0.01381 0.0281,-0.02177 -0.006,0.0052 -0.0106,0.0094 -0.0179,0.01397 -0.004,0.0024 -0.01,0.006 -0.0181,0.0095 -0.008,0.0032 -0.0217,0.0085 -0.0405,0.01003 -0.01,8.1e-4 -0.0221,7e-4 -0.0358,-0.002 -0.014,-0.0027 -0.029,-0.008 -0.0435,-0.01688 -0.0146,-0.0089 -0.0266,-0.02014 -0.036,-0.03241 -0.009,-0.01203 -0.0151,-0.02407 -0.019,-0.03443 -0.004,-0.01028 -0.006,-0.01953 -0.007,-0.02686 -0.001,-0.0074 -0.001,-0.01379 -0.001,-0.01885 4e-5,-0.0098 0.001,-0.01764 0.002,-0.02234 0.002,-0.0092 0.004,-0.01583 0.005,-0.01816 0.001,-0.003 0.002,-0.005 0.002,-0.0056 -1.6e-4,2.68e-4 -0.001,0.0023 -0.003,0.0057 -0.002,0.0033 -0.004,0.0075 -0.007,0.01264 -0.006,0.01022 -0.0137,0.0232 -0.0234,0.03908 -0.0193,0.03158 -0.0454,0.07305 -0.0782,0.12421 -0.0325,0.05072 -0.0713,0.11057 -0.11605,0.179101 -0.17651,0.27017 -0.44417,0.672297 -0.78056,1.1737 -0.65233,0.972344 -1.55048,2.299229 -2.49271,3.686874 -1.78192,2.624274 -3.7082,5.445367 -3.70817,5.445322 l 0.11512,0.206768 c 7.80347,-0.346821 15.92887,-0.707949 24.05426,-1.069078 l 0.12642,-0.0056 v -0.126542 c 0,-8.847652 0,-17.695304 0,-26.192414 v -0.266015 l -0.21212,0.160527 c -3.48092,2.634202 -6.80601,5.150489 -9.80623,7.420922 -0.4845,-0.390559 -3.08324,-2.439797 -7.13154,-4.807053 -4.98454,-2.914724 -11.74653,-6.122293 -19.93063,-8.382201 -9.168035,-2.531603 -19.301437,-3.65006 -30.120453,-2.559864 -12.816238,1.29145 -25.460333,5.56298 -37.766606,12.595136 z"
       id="path109"
       inkscape:path-effect="#path-effect111"
       inkscape:original-d="m 35.814116,26.726952 c 54.255714,-31.0032645 94.880674,3.207234 94.880674,3.207234 l 9.88898,-7.483547 v 26.192414 l -24.05426,1.069078 c 0,0 7.48355,-10.958049 7.21628,-10.69078 -0.26727,0.267268 -10.69078,-21.648833 -87.931674,-12.294399 z" />
    <path
       style="fill:#008080;fill-rule:nonzero;stroke:none;stroke-width:0.264583px;stroke-linecap:butt;stroke-linejoin:miter;stroke-opacity:1"
       d="m 153.57101,70.532041 c 2.02022,62.456429 -47.22077,82.357939 -47.22077,82.357939 l 1.98801,12.24105 -23.149603,-12.25307 10.307936,-21.75999 c 0,0 6.184157,11.74047 6.072967,11.37921 -0.11122,-0.36123 24.13512,0.67872 52.00146,-71.965139 z"
       id="path109-6"
       inkscape:path-effect="#path-effect130"
       inkscape:original-d="m 155.70917,67.859346 c 2.02022,62.456424 -47.22077,82.357934 -47.22077,82.357934 l 1.98801,12.24105 -23.149607,-12.25307 10.307936,-21.75999 c 0,0 6.184161,11.74047 6.072971,11.37921 -0.11122,-0.36123 24.13512,0.67872 52.00146,-71.965134 z" />
    <path
       style="fill:#008080;fill-rule:nonzero;stroke:none;stroke-width:0.264583px;stroke-linecap:butt;stroke-linejoin:miter;stroke-opacity:1"
       d="M 75.37446,149.25451 C 62.572959,143.24575 51.837591,135.38038 43.437002,125.67043 36.345465,117.47356 31.448013,108.56973 28.2561,99.642336 25.406561,91.672526 24.145278,84.319063 23.664346,78.584111 23.230201,73.407091 23.502837,69.918441 23.50229,69.92471 l -0.01385,0.158589 -0.117943,-0.0378 c -3.608662,-1.1567 -7.614367,-2.440666 -11.80959,-3.785379 l 0.07609,-0.02407 c 6.917854,-4.863883 14.11974,-9.927465 21.32298,-14.992 4.835436,6.266369 9.74818,12.632921 14.470649,18.752891 -0.86041,0.01198 -3.676759,0.0517 -6.323453,0.09484 -1.677196,0.02733 -3.279811,0.05579 -4.4512,0.08142 -0.603843,0.01321 -1.088046,0.02557 -1.412307,0.03662 -0.08233,0.0028 -0.154425,0.0055 -0.215638,0.0082 -0.06153,0.0027 -0.112497,0.0052 -0.152019,0.0078 -0.01985,0.0013 -0.03727,0.0025 -0.05195,0.0038 -0.0074,6.54e-4 -0.01432,0.0013 -0.02071,0.0021 -0.0063,7.09e-4 -0.01271,0.0015 -0.01884,0.0025 -0.0031,4.91e-4 -0.0065,0.0011 -0.0101,0.0018 -0.0034,6.92e-4 -0.0079,0.0017 -0.01295,0.0031 -0.0044,0.0012 -0.01268,0.0037 -0.02234,0.0082 -0.0049,0.0023 -0.01249,0.0061 -0.02092,0.01198 -0.0043,0.003 -0.0096,0.0071 -0.01518,0.01231 -0.0055,0.0052 -0.01211,0.01226 -0.01843,0.0214 -0.0064,0.0092 -0.01288,0.02112 -0.01747,0.0357 -0.0047,0.01487 -0.007,0.03129 -0.0059,0.04849 0.0011,0.01712 0.0054,0.03254 0.01132,0.0457 0.0058,0.01292 0.01284,0.02315 0.01927,0.03086 0.01229,0.01474 0.02509,0.0236 0.03247,0.02817 0.008,0.0049 0.01503,0.0082 0.01973,0.0101 0.0092,0.0038 0.01711,0.0059 0.02142,0.007 0.0049,0.0012 0.0093,0.0021 0.01277,0.0027 -0.0096,-0.0017 -0.01976,-0.0046 -0.0299,-0.0092 -0.01018,-0.0046 -0.01957,-0.01053 -0.02796,-0.01748 -0.01689,-0.01399 -0.02695,-0.02979 -0.03275,-0.04219 -0.0056,-0.01207 -0.008,-0.02235 -0.009,-0.02847 -0.0011,-0.0063 -0.0012,-0.01102 -0.0012,-0.01325 -3.6e-5,-0.0041 3.65e-4,-0.0048 -3.27e-4,-2.53e-4 -6.18e-4,0.004 -0.0018,0.01022 -0.0038,0.0191 -0.0041,0.01794 -0.01072,0.04205 -0.02003,0.07353 -0.0093,0.03131 -0.02071,0.06819 -0.03421,0.111099 -0.02717,0.0864 -0.06172,0.194386 -0.101453,0.324888 -0.04003,0.131489 -0.0849,0.284451 -0.132404,0.459665 -0.196312,0.724114 -0.42612,1.786977 -0.551543,3.223405 -0.271838,3.113244 -0.01919,7.599126 1.709154,13.653803 1.935367,6.779909 5.543542,14.908141 11.413871,24.465331 6.953632,11.32088 16.459684,23.63942 28.263335,36.74133 z m 0.04208,0.0312 C 63.620088,136.19181 54.12488,123.88626 47.182077,112.58302 41.320905,103.04072 37.724335,94.934687 35.797176,88.183533 34.076448,82.155542 33.828523,77.702215 34.097182,74.625371 c 0.123928,-1.419306 0.3507,-2.466665 0.543326,-3.177184 0.04666,-0.172102 0.09075,-0.322407 0.130151,-0.451835 0.03926,-0.12896 0.07314,-0.234822 0.10074,-0.322582 0.01356,-0.04311 0.02558,-0.08181 0.03552,-0.115416 0.0098,-0.03321 0.01818,-0.06333 0.02413,-0.08911 0.003,-0.01293 0.0056,-0.02594 0.0076,-0.0385 0.0018,-0.01204 0.0035,-0.0267 0.0034,-0.04215 -6.9e-5,-0.0079 -6.14e-4,-0.01762 -0.0024,-0.02834 -0.0018,-0.0105 -0.0052,-0.02452 -0.01225,-0.03967 -0.0072,-0.01549 -0.0191,-0.03372 -0.03816,-0.04951 -0.0095,-0.0078 -0.02004,-0.0145 -0.03149,-0.01969 -0.01141,-0.0052 -0.02289,-0.0085 -0.03398,-0.01048 5.44e-4,9.5e-5 0.0025,4.38e-4 0.0053,0.0011 0.0022,5.51e-4 0.0085,0.0022 0.01642,0.0054 0.0041,0.0017 0.0106,0.0046 0.01815,0.0093 0.007,0.0043 0.01943,0.0129 0.03151,0.02738 0.0063,0.0076 0.01328,0.01767 0.01901,0.03045 0.0058,0.01304 0.01013,0.02832 0.01123,0.04531 0.0011,0.01707 -0.0012,0.03336 -0.0058,0.04809 -0.0045,0.01445 -0.01099,0.02622 -0.01727,0.0353 -0.0062,0.009 -0.01268,0.01593 -0.01808,0.021 -0.0054,0.0051 -0.01053,0.009 -0.01468,0.01191 -0.0081,0.0056 -0.01512,0.0092 -0.01946,0.01117 -0.0085,0.0039 -0.01524,0.0059 -0.01762,0.0065 -0.003,8.45e-4 -0.0052,0.0013 -0.0058,0.0014 3.11e-4,-2.3e-5 0.0025,-3.4e-4 0.0065,-7.81e-4 0.0038,-4.27e-4 0.0086,-9.05e-4 0.01444,-0.0014 0.01176,-0.001 0.02684,-0.0022 0.04541,-0.0033 0.03694,-0.0024 0.08589,-0.0048 0.146589,-0.0075 0.06018,-0.0026 0.131443,-0.0053 0.213256,-0.0081 0.322531,-0.011 0.805437,-0.02332 1.40908,-0.03653 1.170611,-0.02562 2.772639,-0.05406 4.449723,-0.08139 3.171651,-0.05169 6.587344,-0.09849 6.587289,-0.09849 l 0.102933,-0.213098 c -4.771947,-6.18409 -9.740757,-12.6233 -14.709567,-19.062511 l -0.07731,-0.100183 -0.103517,0.07278 c -7.237751,5.0888 -14.475503,10.1776 -21.426497,15.064782 l 0.07609,-0.02407 c 4.195223,1.344713 8.200928,2.628679 11.80959,3.785379 l -0.13179,0.120785 c -5.47e-4,0.0063 -0.273654,3.509772 0.161978,8.704525 0.482529,5.753988 1.747821,13.130448 4.606274,21.125192 3.20211,8.955907 8.115475,17.888747 15.229948,26.112127 8.427826,9.74144 19.194473,17.62804 32.025128,23.65049 z"
       id="path109-6-8"
       inkscape:path-effect="#path-effect149"
       inkscape:original-d="M 75.318249,149.37427 C 18.750646,122.82258 23.3705,69.913203 23.3705,69.913203 L 11.560906,66.127822 32.987403,51.06304 47.69697,70.125551 c 0,0 -13.268383,0.180753 -12.896012,0.245669 0.372348,0.06492 -11.56077,21.197022 40.517291,79.00305 z" />
    <path
       style="fill:#008080;stroke-width:1.01015"
       d="m 265.41415,553.60668 c -32.64774,-17.36861 -59.79626,-37.33847 -84.8861,-62.44033 -25.33642,-25.34858 -43.147,-50.06426 -58.49032,-81.16684 -21.20867,-42.99229 -31.740812,-84.85849 -32.926141,-130.88433 -0.220061,-8.5449 -0.530409,-15.65287 -0.689662,-15.79549 -0.159253,-0.14262 -9.751793,-3.29213 -21.316756,-6.99892 l -21.027205,-6.73961 21.027205,-14.77179 c 11.564963,-8.12449 29.191495,-20.5254 39.170069,-27.55759 l 18.14287,-12.78579 14.11624,18.27287 c 7.76393,10.05009 19.74203,25.54598 26.618,34.43532 9.783,12.64762 12.10391,16.22496 10.67237,16.4499 -1.00616,0.15811 -11.6026,0.61268 -23.54766,1.01016 l -21.71828,0.72269 -1.40209,5.05076 c -2.37894,8.56965 -2.0201,33.20576 0.67928,46.63672 7.44651,37.05057 27.91988,81.00437 60.57988,130.0575 21.18105,31.81253 56.35293,76.74413 86.4523,110.44164 1.11658,1.25006 1.60999,2.26619 1.09645,2.25804 -0.51353,-0.008 -6.16124,-2.79585 -12.55045,-6.19491 z"
       id="path151"
       transform="scale(0.26458333)" />
    <path
       style="fill:#008080;stroke-width:1.01015"
       d="m 455.39684,167.88365 c 7.18188,-10.53466 13.05797,-19.76917 13.05797,-20.52114 0,-2.10038 -13.85175,-15.05219 -21.2132,-19.83501 C 395.54197,93.937685 289.5017,83.066215 156.40904,97.71074 c -7.45013,0.819757 -13.74875,1.287406 -13.99694,1.03922 -0.24818,-0.248185 5.43839,-3.402549 12.63684,-7.009698 69.71127,-34.932374 138.9676,-46.212738 208.5477,-33.967925 19.43436,3.420088 47.94648,12.099239 68.49268,20.849317 19.68318,8.382543 44.9788,22.772106 57.81331,32.887456 2.31687,1.826 4.26379,2.66752 5.05076,2.18308 0.70434,-0.43357 8.63283,-6.37478 17.61885,-13.20268 8.98604,-6.827894 16.60006,-12.414356 16.92006,-12.414356 0.32,0 0.58181,21.364726 0.58181,47.477166 v 47.47717 h -2.39043 c -3.43144,0 -66.15114,2.84925 -76.57999,3.4789 l -8.76482,0.52918 z"
       id="path153"
       transform="scale(0.26458333)" />
  </g>
</svg>
